<?xml version="1.0" standalone="no"?>
<!DOCTYPE svg PUBLIC "-//W3C//DTD SVG 20010904//EN"
 "http://www.w3.org/TR/2001/REC-SVG-20010904/DTD/svg10.dtd">
<svg version="1.0" xmlns="http://www.w3.org/2000/svg"
 width="512.000000pt" height="512.000000pt" viewBox="0 0 512.000000 512.000000"
 preserveAspectRatio="xMidYMid meet">
<metadata>
Created by potrace 1.11, written by Peter Selinger 2001-2013
</metadata>
<g transform="translate(0.000000,512.000000) scale(0.100000,-0.100000)"
fill="#000000" stroke="none">
<path d="M2450 4574 c-58 -18 -222 -69 -365 -114 -143 -44 -267 -83 -275 -85
-8 -2 -42 -12 -75 -23 -33 -10 -197 -61 -365 -112 -168 -52 -308 -96 -312 -99
-36 -30 -46 -713 -14 -901 2 -14 7 -47 10 -75 3 -27 8 -61 10 -75 3 -14 7 -41
10 -60 29 -188 103 -452 179 -630 208 -489 527 -840 964 -1059 136 -68 270
-121 323 -128 55 -6 184 39 360 127 401 201 708 517 909 933 93 193 186 468
217 645 2 12 6 34 9 50 47 253 60 407 60 707 0 258 -12 446 -31 464 -3 3 -507
161 -771 242 -145 44 -199 61 -414 127 -357 111 -307 103 -429 66z"/>
<path d="M315 2492 c13 -147 97 -262 212 -286 30 -7 32 -6 27 19 -21 118 -120
247 -216 284 -23 9 -25 7 -23 -17z"/>
<path d="M770 2499 c-75 -30 -140 -137 -140 -232 l0 -58 28 15 c74 38 143 139
160 234 10 57 5 62 -48 41z"/>
<path d="M4295 2468 c12 -73 53 -150 107 -201 64 -60 83 -59 84 7 2 71 -46
161 -110 204 -26 17 -57 32 -68 32 -18 0 -19 -5 -13 -42z"/>
<path d="M4729 2481 c-77 -48 -147 -154 -164 -245 l-8 -39 29 7 c113 28 196
134 211 267 6 48 -6 50 -68 10z"/>
<path d="M557 2473 c-2 -5 -3 -19 -2 -33 1 -14 5 -63 9 -110 15 -179 77 -408
157 -579 165 -352 407 -621 737 -824 76 -47 300 -153 342 -162 8 -2 47 -13 85
-25 39 -11 86 -23 105 -26 19 -3 38 -8 41 -10 8 -5 124 -22 198 -30 118 -11
163 -10 168 4 8 20 -1 24 -74 28 -338 19 -653 123 -925 304 -121 81 -183 134
-292 244 -315 322 -492 738 -515 1209 -1 17 -26 24 -34 10z"/>
<path d="M4527 2473 c-4 -3 -7 -29 -7 -57 0 -45 -10 -123 -25 -211 -55 -310
-185 -594 -385 -840 -32 -38 -100 -111 -153 -162 -229 -218 -510 -372 -817
-446 -146 -35 -210 -44 -417 -56 -7 -1 -13 -10 -13 -20 0 -16 6 -19 38 -16 20
2 75 7 122 10 307 23 604 127 870 306 283 191 487 428 644 748 40 81 104 258
120 332 45 202 67 419 43 419 -8 0 -17 -3 -20 -7z"/>
<path d="M780 2238 c-52 -40 -89 -108 -94 -174 -5 -61 3 -114 17 -114 22 0 97
94 118 149 23 61 31 162 13 168 -6 2 -31 -11 -54 -29z"/>
<path d="M4271 2204 c5 -82 41 -164 96 -219 51 -51 61 -43 64 51 3 98 -59 198
-145 230 -17 7 -18 2 -15 -62z"/>
<path d="M345 2167 c27 -127 129 -230 241 -244 l44 -5 -10 28 c-42 112 -147
216 -244 242 l-37 11 6 -32z"/>
<path d="M4674 2160 c-60 -34 -126 -105 -160 -172 -34 -67 -32 -72 22 -64 100
13 183 92 224 211 l19 55 -27 0 c-15 0 -50 -13 -78 -30z"/>
<path d="M858 2010 c-72 -60 -102 -168 -73 -268 16 -54 16 -54 37 -36 29 27
64 92 78 141 13 52 15 139 3 171 l-8 22 -37 -30z"/>
<path d="M4207 2004 c-17 -89 12 -204 69 -279 25 -33 28 -34 40 -17 41 58 30
191 -22 259 -51 68 -78 80 -87 37z"/>
<path d="M416 1882 c-10 -16 43 -101 91 -149 38 -38 67 -57 105 -68 56 -16
114 -20 122 -7 16 26 -109 153 -188 192 -61 29 -122 44 -130 32z"/>
<path d="M4645 1880 c-106 -26 -236 -131 -260 -209 -7 -24 -7 -24 52 -19 71 7
124 32 176 85 59 58 104 157 69 152 -4 -1 -20 -4 -37 -9z"/>
<path d="M959 1788 c-72 -76 -84 -229 -24 -304 l23 -28 25 49 c42 84 49 151
26 248 -14 58 -22 64 -50 35z"/>
<path d="M4108 1768 c-20 -69 -15 -175 11 -235 34 -78 46 -83 71 -32 27 52 36
131 21 185 -11 43 -64 124 -81 124 -5 0 -15 -19 -22 -42z"/>
<path d="M1089 1577 c-37 -52 -51 -146 -31 -213 12 -37 59 -114 71 -114 16 0
44 112 42 172 -1 60 -36 169 -56 174 -5 2 -17 -7 -26 -19z"/>
<path d="M3991 1587 c-46 -57 -61 -221 -27 -300 20 -45 31 -41 73 30 45 77 37
209 -17 266 -14 16 -18 16 -29 4z"/>
<path d="M546 1560 c31 -53 96 -112 153 -138 57 -26 142 -34 175 -15 17 9 13
15 -36 64 -71 71 -152 111 -242 117 l-69 5 19 -33z"/>
<path d="M4445 1576 c-62 -19 -125 -60 -179 -115 l-49 -50 39 -7 c111 -23 220
25 295 130 16 21 29 43 29 48 0 12 -89 9 -135 -6z"/>
<path d="M1244 1378 c-24 -46 -23 -142 3 -198 26 -58 81 -116 97 -100 16 16
14 178 -3 220 -19 45 -61 110 -72 110 -5 0 -16 -14 -25 -32z"/>
<path d="M3817 1378 c-51 -69 -74 -177 -55 -263 5 -22 11 -41 14 -44 8 -8 55
43 81 86 34 58 42 147 19 208 -10 25 -22 45 -26 45 -5 0 -20 -15 -33 -32z"/>
<path d="M740 1323 c-43 -8 -43 -19 2 -63 54 -53 135 -92 202 -96 54 -2 117
14 123 32 5 15 -103 89 -160 108 -53 18 -129 27 -167 19z"/>
<path d="M4240 1314 c-63 -19 -146 -64 -177 -96 l-26 -27 29 -13 c49 -21 154
-15 210 12 83 41 164 127 122 131 -70 7 -120 4 -158 -7z"/>
<path d="M1432 1218 c-14 -49 -5 -135 18 -179 22 -41 92 -109 113 -109 18 0
19 5 15 74 -3 53 -13 90 -31 128 -25 52 -80 118 -98 118 -5 0 -12 -15 -17 -32z"/>
<path d="M3616 1208 c-58 -67 -84 -157 -77 -267 1 -23 1 -23 29 -6 46 29 91
87 109 140 17 53 19 131 3 150 -5 7 -7 15 -3 18 3 4 -1 7 -10 7 -8 0 -32 -19
-51 -42z"/>
<path d="M1643 1104 c-12 -33 6 -127 34 -173 32 -51 104 -111 135 -111 18 0
19 5 14 48 -10 70 -59 165 -113 211 -50 45 -61 49 -70 25z"/>
<path d="M3430 1103 c-73 -49 -129 -146 -138 -236 l-5 -59 39 20 c104 53 152
141 146 265 -2 31 -9 33 -42 10z"/>
<path d="M985 1094 c-11 -3 -35 -10 -53 -16 -33 -10 -33 -10 -15 -30 50 -56
174 -101 252 -92 47 5 112 33 118 50 3 10 -55 43 -119 68 -40 16 -151 28 -183
20z"/>
<path d="M3975 1081 c-61 -18 -139 -54 -149 -69 -6 -10 43 -41 77 -48 88 -21
187 1 263 58 24 18 44 35 44 38 0 3 -10 11 -21 18 -33 21 -145 22 -214 3z"/>
<path d="M1870 994 c0 -99 77 -204 174 -237 l48 -17 -6 41 c-14 87 -80 176
-165 223 l-51 27 0 -37z"/>
<path d="M3174 991 c-83 -60 -131 -130 -149 -218 -6 -31 -6 -32 22 -24 112 32
190 121 197 225 4 56 -12 60 -70 17z"/>
<path d="M2110 923 c18 -97 102 -179 202 -198 55 -10 61 -1 33 55 -32 63 -91
121 -157 154 -74 37 -87 35 -78 -11z"/>
<path d="M2935 940 c-79 -35 -157 -122 -180 -199 -7 -23 -6 -24 33 -19 91 13
167 70 203 156 36 83 22 98 -56 62z"/>
<path d="M1196 882 c-65 -30 -64 -33 10 -70 48 -24 125 -40 174 -35 41 5 143
53 148 70 3 11 -47 38 -93 50 -11 2 -56 6 -100 8 -70 3 -87 1 -139 -23z"/>
<path d="M3680 895 c-25 -7 -58 -18 -74 -24 -28 -11 -28 -12 -10 -32 43 -47
135 -72 215 -57 60 11 159 54 159 69 0 6 -21 20 -47 32 -57 25 -174 31 -243
12z"/>
<path d="M1531 750 c-50 -17 -121 -59 -121 -72 0 -4 28 -16 63 -27 116 -36
233 -13 302 59 l28 29 -29 12 c-47 19 -185 19 -243 -1z"/>
<path d="M3363 758 c-24 -5 -43 -13 -43 -19 0 -5 16 -24 35 -42 46 -43 118
-66 197 -62 62 3 148 29 148 45 0 13 -49 44 -100 65 -51 20 -173 27 -237 13z"/>
<path d="M1865 657 c-63 -20 -105 -45 -143 -84 l-23 -23 28 -11 c44 -17 152
-14 209 5 50 16 113 66 134 106 8 16 6 19 -19 25 -47 10 -123 3 -186 -18z"/>
<path d="M3044 668 c-11 -18 51 -83 106 -110 61 -30 136 -40 207 -27 56 11 58
12 42 37 -17 27 -104 77 -164 95 -57 17 -182 20 -191 5z"/>
<path d="M2262 634 c-86 -18 -179 -70 -221 -125 l-34 -44 37 -6 c50 -8 139 7
188 32 63 32 101 75 135 150 4 10 -36 7 -105 -7z"/>
<path d="M2756 641 c-7 -11 21 -65 47 -92 52 -54 152 -96 222 -93 68 3 75 4
75 14 0 24 -87 102 -144 129 -71 34 -190 59 -200 42z"/>
</g>
</svg>
